<?xml version="1.0" encoding="UTF-8"?>
<svg width="512" height="512" viewBox="0 0 512 512" xmlns="http://www.w3.org/2000/svg">
  <path id="2" d="M 252.022,459.176 C 250.017,457.171 249,455.155 249,453.185 C 249,451.552 251.250,444.269 254,437 C 259.196,423.266 259.630,421.507 258.059,420.536 C 257.541,420.216 252.078,420.862 245.918,421.971 C 227.167,425.347 208.823,426.429 193.179,425.081 C 150.088,421.367 122.942,408.622 112.135,387.030 C 103.307,369.392 104.549,351.603 116.113,330.081 C 120.391,322.119 123.235,318.240 132.250,308.066 C 135.413,304.497 138,300.976 138,300.242 C 138,299.508 135.976,295.398 133.503,291.110 C 116.395,261.450 102.547,224.038 95.104,187.372 C 90.981,167.059 89.642,153.063 90.290,137 C 92.047,93.431 109.371,62.895 138,52.908 C 143.361,51.038 146.602,50.641 156.500,50.643 C 167.625,50.645 169.241,50.901 178.658,54.157 C 197.540,60.686 211.070,70.023 227.354,87.764 C 246.207,108.304 259.050,127.053 271.013,151.500 C 291.013,192.372 316.802,276.985 323.588,324 C 325.057,334.175 326.629,342.907 327.083,343.404 C 327.558,343.925 329.516,343.107 331.704,341.475 C 338.359,336.509 365.317,308.855 373.382,298.719 C 382.638,287.087 384.869,285.333 388.183,287.079 C 391.219,288.678 391.966,289.908 391.985,293.331 C 392.013,298.486 384.905,307.214 361.109,331.248 C 334.988,357.630 334.412,358.629 347.176,355.398 C 361.208,351.846 376.654,353.939 382.703,360.210 C 386.514,364.160 388,367.776 388,373.097 C 388,378.868 385.935,382.896 380.276,388.166 C 374.476,393.567 368.129,396.999 357.554,400.451 C 347.188,403.835 341.853,404.681 316.169,407.013 C 293.268,409.093 289.306,410.004 283.326,414.565 C 278.906,417.936 275.893,423.346 269.341,439.673 C 263.001,455.470 260.335,461 259.061,461 C 258.567,461 257.462,461.270 256.604,461.599 C 255.641,461.969 253.888,461.042 252.022,459.176M 230.022,409.560 C 255.803,406.127 276.867,398.039 300,382.688 C 312.173,374.610 325.102,364.804 324.790,363.886 C 324.631,363.417 322.475,362.014 320,360.767 C 315.993,358.749 315.317,357.897 313.832,353 C 312.915,349.975 310.977,339.400 309.526,329.500 C 304.091,292.430 288.541,236.718 269.054,184.500 C 254.758,146.194 235.471,116.066 208.877,90.500 C 191.050,73.362 174.228,65.065 157.218,65.021 C 130.140,64.951 112.981,84.202 106.429,122 C 104.223,134.725 104.923,159.845 107.935,176 C 114.910,213.417 129.015,253.156 145.381,281.500 C 152.633,294.060 151.650,293.623 164.500,290.009 C 174.536,287.186 198.787,286.109 209.938,287.990 C 218.962,289.512 231.798,295.759 237.076,301.198 C 246.848,311.268 247.436,327.289 238.420,337.822 C 233.035,344.114 225.479,347.313 214.799,347.824 C 193.969,348.820 175.281,340.506 157.253,322.224 C 157.253,322.224 149.005,313.860 149.005,313.860 C 149.005,313.860 145.920,316.057 145.920,316.057 C 136.972,322.428 125.549,341.127 122.434,354.500 C 118.265,372.400 126.297,388.768 143.970,398.387 C 151.347,402.402 174.602,408.010 193.500,410.332 C 200.954,411.248 220.440,410.836 230.022,409.560M 344.752,387.423 C 352.863,385.439 360.953,383.209 362.728,382.468 C 367.894,380.312 373,375.747 373,373.285 C 373,370.476 370.609,369.207 363.819,368.409 C 354.387,367.300 341.177,371.970 328,381.073 C 318.967,387.313 316.598,389.539 317.477,390.962 C 318.634,392.835 327.138,391.732 344.752,387.423M 222.802,331.101 C 230.781,327.031 232.083,318.805 225.786,312.247 C 221.490,307.773 217.101,305.607 208.303,303.623 C 194.100,300.419 165.919,302.441 164.253,306.783 C 163.333,309.181 176.416,320.916 185.162,325.537 C 200.824,333.813 213.743,335.722 222.802,331.101" stroke="#000000" fill="#000000" stroke-width="1"/>
  <path id="2" d="M 344.039,293.811 C 342.918,292.607 342.002,290.695 342.003,289.561 C 342.004,288.427 346.737,279.175 352.522,269 C 364.442,248.032 383.038,211.602 391.314,193 C 402.588,167.661 406.305,152.037 406.422,129.500 C 406.490,116.368 406.202,113.537 404.109,106.765 C 398.254,87.827 384.754,82.142 364,89.875 C 359.325,91.617 352.350,95.200 348.500,97.837 C 336.072,106.349 321.584,124.702 310.084,146.500 C 304.016,158.001 301.584,161 298.326,161 C 295.409,161 292,157.687 292,154.851 C 292,152.058 304.061,128.903 311.196,118 C 319.312,105.597 326.697,97.188 336.144,89.589 C 355.576,73.959 378.391,67.875 394.500,74.026 C 402.910,77.237 412.808,87.156 415.915,95.485 C 421.439,110.295 422.990,123.777 421.126,140.795 C 418.134,168.117 411.566,186.894 389.751,230.500 C 379.327,251.335 359.536,287.128 355.330,292.750 C 352.314,296.781 347.250,297.257 344.039,293.811" stroke="#000000" fill="#000000" stroke-width="1"/>
</svg>
